<svg class="svg-sprite" style="display: none;">
    <symbol id="chat"       xmlns="http://www.w3.org/2000/svg" viewBox="0 0 56.7 52"><g><path d="M9.4,21.7H21.7a.9.9,0,0,0,1-.9,1,1,0,0,0-1-1H9.4a1,1,0,0,0-.9,1A.9.9,0,0,0,9.4,21.7Z"/><path d="M34,25.5H9.4a.9.9,0,0,0-.9,1,.9.9,0,0,0,.9.9H34a1,1,0,0,0,1-.9A1,1,0,0,0,34,25.5Z"/><path d="M34,31.2H9.4a.9.9,0,0,0-.9.9,1,1,0,0,0,.9,1H34a1.1,1.1,0,0,0,1-1A1,1,0,0,0,34,31.2Z"/><path d="M51.1.1H18.8a5.6,5.6,0,0,0-5.6,5.6v4.8H5.6A5.6,5.6,0,0,0,0,16.1V36a5.6,5.6,0,0,0,5.6,5.6h5.7v9.5a1.1,1.1,0,0,0,.6.9h.4a1.1,1.1,0,0,0,.7-.3l9.2-10.1H37.9A5.6,5.6,0,0,0,43.5,36h0l4.9,5.4a1.1,1.1,0,0,0,.7.3h.4a1.1,1.1,0,0,0,.6-.9V31.2h1a5.6,5.6,0,0,0,5.6-5.6V5.7A5.6,5.6,0,0,0,51.1.1ZM41.6,36a3.8,3.8,0,0,1-3.7,3.7H21.7a1.1,1.1,0,0,0-.7.3l-7.8,8.5V40.7a.9.9,0,0,0-.9-.9H5.6A3.8,3.8,0,0,1,1.9,36V16.1a3.8,3.8,0,0,1,3.7-3.8H37.9A3.7,3.7,0,0,1,41.6,16V36ZM54.8,25.6a3.8,3.8,0,0,1-3.7,3.8h-2a.9.9,0,0,0-.9.9v8l-4.7-5.2V16a5.6,5.6,0,0,0-5.6-5.6H15.1V5.6a3.8,3.8,0,0,1,3.7-3.7H51.1a3.7,3.7,0,0,1,3.7,3.7V25.6Z"/></g></symbol>
    <symbol id="like"       xmlns="http://www.w3.org/2000/svg" viewBox="0 0 56.7 55.4"><g><path d="M53.2,39.4a1.1,1.1,0,0,0-.6-1.4,1,1,0,0,0-1.4.6,5.4,5.4,0,0,1-5,3.4H24.3a1.1,1.1,0,0,0-.8.3l-10,9.6V43a.9.9,0,0,0-.3-.7,1.1,1.1,0,0,0-.8-.3h-5a5.4,5.4,0,0,1-5.3-5.4V12.9A5.3,5.3,0,0,1,7.4,7.6H31.2a1.1,1.1,0,0,0,1.1-1,1.1,1.1,0,0,0-1.1-1.1H7.4A7.4,7.4,0,0,0,0,12.9V36.6a7.5,7.5,0,0,0,7.4,7.5h4V54.3a1.3,1.3,0,0,0,.6,1h.5a1.1,1.1,0,0,0,.7-.3l11.5-11H46.2A7.5,7.5,0,0,0,53.2,39.4Z"/><path d="M56.6,17.7a5.3,5.3,0,0,0-2-5,5,5,0,0,0-3.1-1H43.9V6.2c0-2.4-.8-4.2-2.2-5.2S36.4.3,36.3.3a1,1,0,0,0-.7,1V7.6c0,4.9-5.7,6.6-5.9,6.6h-.1a2,2,0,0,0-1.7-.9H22.1a2,2,0,0,0-2,1.9V32.4a2,2,0,0,0,2,2h5.8a1.7,1.7,0,0,0,1.4-.6A5.1,5.1,0,0,0,33,35.3H48.5c3.5,0,5.8-1.8,6.2-5ZM27.8,32.3H22.2V15.5h5.6ZM54.6,17.4,52.6,30h0c-.3,2.2-1.7,3.3-4.1,3.3H33a3.1,3.1,0,0,1-3.1-3.1V16.3h.3c.3-.1,7.5-2.2,7.5-8.7V2.2a3.3,3.3,0,0,1,2.8.5,4.2,4.2,0,0,1,1.3,3.5v6.5a1,1,0,0,0,1,1.1h8.8a2.7,2.7,0,0,1,1.7.6A3.1,3.1,0,0,1,54.6,17.4Z"/></g></symbol>
    <symbol id="clock18"    xmlns="http://www.w3.org/2000/svg" viewBox="0 0 56.7 56.7"><path d="M28.3,0A28.4,28.4,0,1,0,56.7,28.3,28.3,28.3,0,0,0,28.3,0Zm1.3,54.2v-5A1.2,1.2,0,0,0,28.3,48a1.2,1.2,0,0,0-1.2,1.2v5A25.8,25.8,0,0,1,2.5,29.6h5a1.2,1.2,0,0,0,1.2-1.3,1.2,1.2,0,0,0-1.2-1.2h-5A25.8,25.8,0,0,1,27.1,2.5v5a1.2,1.2,0,0,0,1.2,1.2,1.2,1.2,0,0,0,1.3-1.2v-5A25.8,25.8,0,0,1,54.2,27.1h-5A1.2,1.2,0,0,0,48,28.3a1.2,1.2,0,0,0,1.2,1.3h5A25.8,25.8,0,0,1,29.6,54.2Z"/><path d="M41.2,39.7,29.6,27.8V15.6a1.2,1.2,0,0,0-1.3-1.2,1.2,1.2,0,0,0-1.2,1.2V28.3a1.3,1.3,0,0,0,.4.9L39.4,41.4a1.5,1.5,0,0,0,1.8,0A1.4,1.4,0,0,0,41.2,39.7Z"/></symbol>
    <symbol id="clock23"    xmlns="http://www.w3.org/2000/svg" viewBox="0 0 56.7 56.7"><g><path d="M27.8,0A28.4,28.4,0,1,0,56.7,27.8,28.4,28.4,0,0,0,27.8,0Zm1.1,54.8a26.5,26.5,0,1,1,25.9-27A26.5,26.5,0,0,1,28.9,54.8Z"/><path d="M29.2,24.6,29,15a.9.9,0,0,0-.9-.9,1,1,0,0,0-1,.9l.2,9.6a3.7,3.7,0,0,0-2.6,2.8H17.9a.9.9,0,0,0-.9.9.9.9,0,0,0,1,1l6.7-.2A3.8,3.8,0,0,0,28.4,32a3.7,3.7,0,0,0,3.7-3.8A3.6,3.6,0,0,0,29.2,24.6Zm-.8,5.5a1.8,1.8,0,0,1-1.9-1.8,1.9,1.9,0,1,1,3.7-.1A1.8,1.8,0,0,1,28.4,30.1Z"/><path d="M28,9.3a.9.9,0,0,0,.9-.9v-1a1,1,0,1,0-1.9.1v.9A1,1,0,0,0,28,9.3Z"/><path d="M28.7,47.1a1,1,0,0,0-.9,1V49a.9.9,0,0,0,1,1,1,1,0,0,0,.9-1v-.9A1,1,0,0,0,28.7,47.1Z"/><path d="M49.1,26.9h-.9a1,1,0,0,0-1,1,1,1,0,0,0,1,.9h.9a1,1,0,0,0,1-1A1,1,0,0,0,49.1,26.9Z"/><path d="M8.5,27.7h-1a.9.9,0,0,0-.9.9,1,1,0,0,0,1,1h.9a1.2,1.2,0,0,0,1-1A1.1,1.1,0,0,0,8.5,27.7Z"/><path d="M42.1,12.6l-.7.7a.9.9,0,0,0,.1,1.3.7.7,0,0,0,.6.3.9.9,0,0,0,.7-.3l.6-.7a.9.9,0,0,0-1.3-1.3Z"/><path d="M13.9,41.9l-.7.7a.9.9,0,0,0,.1,1.3.9.9,0,0,0,.6.3c.3-.1.5-.1.7-.3l.7-.7a1.1,1.1,0,0,0-.1-1.4A.9.9,0,0,0,13.9,41.9Z"/><path d="M43.3,41.3a1,1,0,0,0-1.3,0,1,1,0,0,0,0,1.4l.7.6a.9.9,0,0,0,.6.3.9.9,0,0,0,.7-.3A.9.9,0,0,0,44,42Z"/><path d="M14,13.1a.9.9,0,0,0-1.3.1.9.9,0,0,0,0,1.3l.7.7.7.2a.9.9,0,0,0,.6-.3.9.9,0,0,0,0-1.3Z"/></g></symbol>
    <symbol id="customer"   xmlns="http://www.w3.org/2000/svg" viewBox="0 0 56.7 33.6"><g><path d="M28.3,10.6c2.9,0,5.3-2.4,5.3-5.3c0-2.9-2.4-5.3-5.3-5.3s-5.3,2.4-5.3,5.3C23.1,8.2,25.4,10.6,28.3,10.6z M28.3,1.1 c2.3,0,4.2,1.9,4.2,4.2s-1.9,4.2-4.2,4.2s-4.2-1.9-4.2-4.2S26,1.1,28.3,1.1z"/><path d="M28.3,12.7c4.3,0,7.8,3.3,8.1,7.5H24c-0.3,0-0.5,0.2-0.5,0.5c0,0.3,0.2,0.5,0.5,0.5H37c0.3,0,0.5-0.2,0.5-0.5 c0-5-4.1-9.1-9.1-9.1s-9.1,4.1-9.1,9.1c0,0.3,0.2,0.5,0.5,0.5h2.1c0.3,0,0.5-0.2,0.5-0.5c0-0.3-0.2-0.5-0.5-0.5h-1.6 C20.6,16.1,24.1,12.7,28.3,12.7L28.3,12.7z"/><g><path d="M33.1,27l-2.9-0.5l-1.4-2.6c-0.1-0.2-0.3-0.3-0.5-0.3c-0.2,0-0.4,0.1-0.5,0.3l-1.4,2.6L23.6,27c-0.2,0-0.4,0.2-0.4,0.4 c-0.1,0.2,0,0.4,0.1,0.5l2.1,2.1L24.9,33c0,0.2,0.1,0.4,0.2,0.5c0.2,0.1,0.4,0.1,0.6,0l2.7-1.3l2.7,1.3c0.1,0,0.2,0.1,0.2,0.1 c0.1,0,0.2,0,0.3-0.1c0.2-0.1,0.2-0.3,0.2-0.5L31.3,30l2.1-2.1c0.1-0.1,0.2-0.4,0.1-0.5C33.5,27.2,33.3,27,33.1,27L33.1,27z M30.4,29.5c-0.1,0.1-0.2,0.3-0.1,0.5l0.3,2.2l-2-1c-0.2-0.1-0.3-0.1-0.5,0l-2,1l0.3-2.2c0-0.2,0-0.3-0.1-0.5l-1.6-1.6l2.2-0.4 c0.2,0,0.3-0.1,0.4-0.3l1-2l1,2c0.1,0.1,0.2,0.3,0.4,0.3l2.2,0.4L30.4,29.5z"/><path d="M44.7,27l-2.9-0.5l-1.4-2.6c-0.1-0.2-0.3-0.3-0.5-0.3s-0.4,0.1-0.5,0.3L38,26.5L35.1,27c-0.2,0-0.4,0.2-0.4,0.4 c-0.1,0.2,0,0.4,0.1,0.5l2.1,2.1L36.5,33c0,0.2,0.1,0.4,0.2,0.5c0.2,0.1,0.4,0.1,0.6,0l2.7-1.3l2.7,1.3c0.1,0,0.2,0.1,0.2,0.1 c0.1,0,0.2,0,0.3-0.1c0.2-0.1,0.2-0.3,0.2-0.5L42.9,30l2.1-2.1c0.1-0.1,0.2-0.4,0.1-0.5C45.1,27.2,44.9,27,44.7,27L44.7,27z M41.9,29.5c-0.1,0.1-0.2,0.3-0.1,0.5l0.3,2.2l-2-1c-0.1,0-0.2-0.1-0.2-0.1c-0.1,0-0.2,0-0.2,0.1l-2,1l0.3-2.2 c0-0.2,0-0.3-0.1-0.5l-1.6-1.6l2.2-0.4c0.2,0,0.3-0.1,0.4-0.3l1-2l1,2c0.1,0.1,0.2,0.3,0.4,0.3l2.2,0.4L41.9,29.5L41.9,29.5z"/><path d="M56.7,27.4c-0.1-0.2-0.2-0.3-0.4-0.4l-2.9-0.5l-1.4-2.6c-0.1-0.2-0.3-0.3-0.5-0.3s-0.4,0.1-0.5,0.3l-1.4,2.6L46.7,27 c-0.2,0-0.4,0.2-0.4,0.4c-0.1,0.2,0,0.4,0.1,0.5l2.1,2.1L48,33c0,0.2,0.1,0.4,0.2,0.5c0.2,0.1,0.4,0.1,0.6,0l2.7-1.3l2.7,1.3 c0.1,0,0.2,0.1,0.2,0.1c0.1,0,0.2,0,0.3-0.1c0.2-0.1,0.2-0.3,0.2-0.5L54.5,30l2.1-2.1C56.7,27.8,56.7,27.6,56.7,27.4L56.7,27.4z M53.5,29.5c-0.1,0.1-0.2,0.3-0.1,0.5l0.3,2.2l-2-1c-0.1,0-0.2-0.1-0.2-0.1c-0.1,0-0.2,0-0.2,0.1l-2,1l0.3-2.2 c0-0.2,0-0.3-0.1-0.5l-1.6-1.6l2.2-0.4c0.2,0,0.3-0.1,0.4-0.3l1-2l1,2c0.1,0.1,0.2,0.3,0.4,0.3l2.2,0.4L53.5,29.5L53.5,29.5z"/><path d="M10,27l-2.9-0.5l-1.4-2.6c-0.1-0.2-0.3-0.3-0.5-0.3s-0.4,0.1-0.5,0.3l-1.4,2.6L0.5,27c-0.2,0-0.4,0.2-0.4,0.4 c-0.1,0.2,0,0.4,0.1,0.5L2.2,30L1.8,33c0,0.2,0.1,0.4,0.2,0.5c0.2,0.1,0.4,0.1,0.6,0l2.7-1.3l2.7,1.3c0.1,0,0.2,0.1,0.2,0.1 c0.1,0,0.2,0,0.3-0.1c0.2-0.1,0.2-0.3,0.2-0.5L8.2,30l2.1-2.1c0.1-0.1,0.2-0.4,0.1-0.5C10.4,27.2,10.2,27,10,27L10,27z M7.3,29.5 c-0.1,0.1-0.2,0.3-0.1,0.5l0.3,2.2l-2-1c-0.2-0.1-0.3-0.1-0.5,0l-2,1l0.3-2.2c0-0.2,0-0.3-0.1-0.5l-1.6-1.6l2.2-0.4 c0.2,0,0.3-0.1,0.4-0.3l1-2l1,2c0.1,0.1,0.2,0.3,0.4,0.3l2.2,0.4L7.3,29.5z"/><path d="M21.6,27l-2.9-0.5l-1.4-2.6c-0.1-0.2-0.3-0.3-0.5-0.3s-0.4,0.1-0.5,0.3l-1.4,2.6L12,27c-0.2,0-0.4,0.2-0.4,0.4 c-0.1,0.2,0,0.4,0.1,0.5l2.1,2.1L13.4,33c0,0.2,0.1,0.4,0.2,0.5c0.2,0.1,0.4,0.1,0.6,0l2.7-1.3l2.7,1.3c0.1,0,0.2,0.1,0.2,0.1 c0.1,0,0.2,0,0.3-0.1c0.2-0.1,0.2-0.3,0.2-0.5L19.8,30l2.1-2.1c0.1-0.1,0.2-0.4,0.1-0.5C21.9,27.2,21.8,27,21.6,27L21.6,27z M18.8,29.5c-0.1,0.1-0.2,0.3-0.1,0.5l0.3,2.2l-2-1c-0.1,0-0.2-0.1-0.2-0.1s-0.2,0-0.2,0.1l-2,1l0.3-2.2c0-0.2,0-0.3-0.1-0.5 l-1.6-1.6l2.2-0.4c0.2,0,0.3-0.1,0.4-0.3l1-2l1,2c0.1,0.1,0.2,0.3,0.4,0.3l2.2,0.4L18.8,29.5L18.8,29.5z"/></g><path d="M28.3,7.7c0.7,0,1.4-0.3,1.8-0.8c0.2-0.2,0.2-0.6-0.1-0.8c-0.2-0.2-0.6-0.2-0.8,0.1c-0.3,0.3-0.6,0.5-1,0.5 c-0.4,0-0.8-0.2-1-0.5c-0.2-0.2-0.5-0.2-0.8-0.1c-0.2,0.2-0.2,0.5-0.1,0.8C27,7.4,27.6,7.7,28.3,7.7L28.3,7.7z"/></g></symbol>
    <symbol id="document"   xmlns="http://www.w3.org/2000/svg" viewBox="0 0 43.4 56.7"><g><path d="M43.2,44.9a.1.1,0,0,0,.1-.1h.1V.9a.9.9,0,0,0-.9-.9H.9A.9.9,0,0,0,0,.9V55.8a.9.9,0,0,0,.9.9H31.3a.1.1,0,0,1,.1-.1h.2c.1,0,.1,0,.1-.1h0L43.2,45h0ZM1.8,1.8H41.6V43.4H31.1a.9.9,0,0,0-.9.9V54.9H1.8ZM40.3,45.2,32,53.6V45.2Z"/><path d="M17.9,11.5H35.3a.9.9,0,0,0,.9-.9,1,1,0,0,0-.9-1H17.9a1,1,0,0,0-.9,1A.9.9,0,0,0,17.9,11.5Z"/><path d="M9.9,13.6a.9.9,0,0,0,.7.3.9.9,0,0,0,.6-.3L16,8.8a.9.9,0,0,0,0-1.3.9.9,0,0,0-1.3,0l-4.1,4.2L9.4,10.5a1.1,1.1,0,0,0-1.3,0,1.1,1.1,0,0,0,0,1.3Z"/><path d="M15.7,19a.9.9,0,0,0,.9.9H35.3a.9.9,0,1,0,0-1.8H16.6A.9.9,0,0,0,15.7,19Z"/><path d="M13,15.7H8.1a.9.9,0,0,0-.9.9v4.8a.9.9,0,0,0,.9.9H13a.9.9,0,0,0,.9-.9V16.6A.9.9,0,0,0,13,15.7Zm-.9,4.8H9v-3h3.1Z"/><path d="M35.3,26.5H16.6a.9.9,0,0,0,0,1.8H35.3a.9.9,0,1,0,0-1.8Z"/><path d="M13,24.1H8.1a.9.9,0,0,0-.9.9v4.9a.9.9,0,0,0,.9.9H13a.9.9,0,0,0,.9-.9V25A.9.9,0,0,0,13,24.1Zm-.9,4.8H9v-3h3.1Z"/><path d="M35.3,35H16.6a.9.9,0,1,0,0,1.8H35.3a.9.9,0,0,0,0-1.8Z"/><path d="M13,32.6H8.1a.9.9,0,0,0-.9.9v4.8a.9.9,0,0,0,.9.9H13a.9.9,0,0,0,.9-.9V33.5A.9.9,0,0,0,13,32.6Zm-.9,4.8H9v-3h3.1Z"/><path d="M27.4,43.4H16.6a.9.9,0,0,0,0,1.8H27.4a.9.9,0,1,0,0-1.8Z"/><path d="M13,41H8.1a.9.9,0,0,0-.9.9v4.8a.9.9,0,0,0,.9.9H13a.9.9,0,0,0,.9-.9V41.9A.9.9,0,0,0,13,41Zm-.9,4.8H9v-3h3.1Z"/></g></symbol>
    <symbol id="map"        xmlns="http://www.w3.org/2000/svg" viewBox="0 0 56.7 56.7"><g><path d="M28.3,24.6A6.7,6.7,0,1,0,21.7,18,6.7,6.7,0,0,0,28.3,24.6Zm0-11.4A4.8,4.8,0,1,1,23.6,18,4.7,4.7,0,0,1,28.3,13.2Z"/><path d="M28.2,51.7,42.7,30.8c5.4-7.2,4.6-19.2-1.7-25.5a18.1,18.1,0,0,0-25.6,0C9,11.6,8.2,23.6,13.7,30.8ZM16.7,6.6A16.4,16.4,0,0,1,28.2,1.9,16.5,16.5,0,0,1,39.7,6.6c5.7,5.8,6.4,16.5,1.4,23.1L28.2,48.4l-13-18.7C10.3,23.1,11,12.4,16.7,6.6Z"/><path d="M39.8,40.6a1.1,1.1,0,0,0-1.1.9,1,1,0,0,0,.9,1c9.9,1.2,15.2,4.3,15.2,6.2s-10.1,6.1-26.5,6.1S1.9,51.2,1.9,48.7s5.3-5,15.2-6.2a.8.8,0,0,0,.8-1,.9.9,0,0,0-1-.9C6.9,41.8,0,45.1,0,48.7s9.7,8,28.3,8,28.4-4,28.4-8S49.7,41.8,39.8,40.6Z"/></g></symbol>
    <symbol id="geo"        xmlns="http://www.w3.org/2000/svg" viewBox="0 0 39.7 56.7"><g><path d="M20.1,26.9a7.2,7.2,0,0,0,7.2-7.2,7.3,7.3,0,0,0-7.2-7.3,7.3,7.3,0,0,0-7.3,7.3A7.3,7.3,0,0,0,20.1,26.9Zm0-12.4a5.2,5.2,0,1,1-5.2,5.2A5.1,5.1,0,0,1,20.1,14.5Z"/><path d="M19.9,56.7,35.8,33.8c5.9-8,5.1-21-1.9-28A19.7,19.7,0,0,0,19.9,0,20.2,20.2,0,0,0,5.8,5.8c-6.9,7-7.8,20-1.8,27.9ZM7.3,7.3A17.5,17.5,0,0,1,19.9,2.1,17.7,17.7,0,0,1,32.5,7.3c6.2,6.2,7,18,1.6,25.2L19.9,53.1,5.7,32.5C.3,25.3,1,13.5,7.3,7.3Z"/></g></symbol>
    <symbol id="letter"     xmlns="http://www.w3.org/2000/svg" viewBox="0 0 56.7 38.5"><g><path d="M52.3,38.5H4.4A4.4,4.4,0,0,1,0,34.2V4.4A4.4,4.4,0,0,1,4.4,0H52.3a4.4,4.4,0,0,1,4.4,4.4V34.2A4.4,4.4,0,0,1,52.3,38.5ZM55,34.4V4.2l-20.6,15-1.5,1.1-4.1,3a.9.9,0,0,1-1,0l-4.1-3-1.4-1.1L1.7,4.3h0v30L2.4,36a2.9,2.9,0,0,0,2,.9H52.3a2.9,2.9,0,0,0,2-.9ZM2.3,2.6l26,18.9,26-18.9a2.5,2.5,0,0,0-2-.9H4.4A3.1,3.1,0,0,0,2.3,2.6Z"/></g></symbol>
    <symbol id="master"     xmlns="http://www.w3.org/2000/svg" viewBox="0 0 49.2 56.7"><g><path d="M28.3,42.8a5.1,5.1,0,0,1-7.4,0,1.1,1.1,0,0,0-1.5,0,1.2,1.2,0,0,0,0,1.6,7.3,7.3,0,0,0,5.2,2.1,7.7,7.7,0,0,0,5.3-2.1,1.1,1.1,0,1,0-1.6-1.6Z"/><path d="M49,53.5c-2.5-2.8-2.7-9.9-2.4-17.3a5.4,5.4,0,0,0,1.8-4.1A5.5,5.5,0,0,0,47,28.4c.4-7.5.6-12.5-1.8-17.1a19.1,19.1,0,0,0-7.8-7.9A25.4,25.4,0,0,0,23.7,0,14.8,14.8,0,0,0,12.9,5.4a10.3,10.3,0,0,0-8.4,5.1,5.6,5.6,0,0,0-.5.8c-2.3,4.6-2.1,9.6-1.8,17.1A6,6,0,0,0,.8,32.1a5.4,5.4,0,0,0,1.8,4.1c.3,7.4.2,14.5-2.3,17.3a1,1,0,0,0-.3,1,1.2,1.2,0,0,0,.7.7,22.2,22.2,0,0,0,8.1,1.5,25.1,25.1,0,0,0,6.6-.9,27,27,0,0,0,6.1-2.5,16.3,16.3,0,0,0,3.1.3,17.3,17.3,0,0,0,3.2-.3,23.6,23.6,0,0,0,6,2.5,27.5,27.5,0,0,0,6.7.9,22.1,22.1,0,0,0,8.1-1.5,1.1,1.1,0,0,0,.6-.7A1.2,1.2,0,0,0,49,53.5ZM43.9,34.4V29h0v-.2a3.5,3.5,0,0,1,2.4,3.3,3.7,3.7,0,0,1-2.5,3.4C43.8,35.1,43.9,34.7,43.9,34.4ZM6,12.2l.3-.6a8.1,8.1,0,0,1,7.1-4h0a1,1,0,0,0,.8-.5,12.6,12.6,0,0,1,9.6-4.9A22.8,22.8,0,0,1,36.3,5.3a17.2,17.2,0,0,1,7,6.9c1.9,3.7,2,7.8,1.6,14.7l-1-.3V25.5a1.1,1.1,0,1,0-2.2,0v2.4c-14.8.2-22.8-6.9-25-9.2a1.1,1.1,0,0,0-1-.3,1.3,1.3,0,0,0-.8.7c-1.5,3.8-4.2,5.8-8.5,6.2a1.1,1.1,0,0,0-1,1.1v.2l-1.1.3C4,20,4.1,16,6,12.2ZM5.4,35.5a3.5,3.5,0,0,1,0-6.7v6.7ZM2.8,53.7c1.9-3.3,2.3-8.7,2-16.2l.9.2A19.3,19.3,0,0,0,18.3,52.5,22.9,22.9,0,0,1,2.8,53.7Zm21.8-2.3a17.1,17.1,0,0,1-17.1-17V27.3a11.1,11.1,0,0,0,8.8-6,29.9,29.9,0,0,0,7.6,5,38.7,38.7,0,0,0,17.8,3.8v4.3A17.1,17.1,0,0,1,24.6,51.4Zm9.9,2.3A17.7,17.7,0,0,1,31,52.5,19.5,19.5,0,0,0,43.6,37.7l.8-.2c-.2,7.5.1,12.9,2.1,16.2A22.2,22.2,0,0,1,34.5,53.7Z"/><path d="M11.8,31.2a.9.9,0,0,0,0,1.5,1.1,1.1,0,0,0,1.5,0,1.8,1.8,0,0,1,2.5,0,1.1,1.1,0,0,0,.7.3,1.1,1.1,0,0,0,.8-.3,1.1,1.1,0,0,0,0-1.5A3.8,3.8,0,0,0,11.8,31.2Z"/><path d="M37.5,32.7a1.1,1.1,0,0,0,0-1.5,3.9,3.9,0,0,0-5.6,0,1.1,1.1,0,0,0,0,1.5,1.2,1.2,0,0,0,1.6,0,1.8,1.8,0,0,1,2.5,0,.9.9,0,0,0,.7.3A1.1,1.1,0,0,0,37.5,32.7Z"/></g></symbol>
    <symbol id="phone"      xmlns="http://www.w3.org/2000/svg" viewBox="0 0 56.7 56.7"><g><path d="M45.6,56.7a24.5,24.5,0,0,1-8.4-1.8c-6.8-2.6-14.3-7.7-21-14.4S4.4,26.3,1.8,19.5-.6,8.1,1.8,5.7a9.4,9.4,0,0,1,1-1C4.9,2.4,7.4-.1,10.6,0s4.3,1.5,6.5,4.2c6.5,8.1,3.6,10.9.2,14.3l-.6.5c-.6.6-1.6,3.2,8.1,12.9a51.5,51.5,0,0,0,8.1,6.9c1.3.9,3.7,2.2,4.7,1.2l.6-.6c3.4-3.4,6.2-6.3,14.3.2,2.7,2.2,4.1,4.3,4.2,6.5s-2.4,5.7-4.7,7.8l-1.1,1C49.8,56.1,47.9,56.7,45.6,56.7ZM10.3,1.9C8.1,1.9,6,4.1,4.2,6L3.1,7.1c-1.7,1.7-1.6,6.3.5,11.7S11,32.6,17.5,39.2,31.3,50.6,37.9,53.1s9.9,2.2,11.7.5a11.4,11.4,0,0,1,1.1-1.1c2-1.8,4.2-3.9,4.1-6.3s-1.3-3.3-3.5-5.1c-6.7-5.4-8.6-3.5-11.7-.4l-.6.7c-1.5,1.4-3.9,1.1-7.2-1a51.6,51.6,0,0,1-8.3-7.2c-8.1-8-10.7-13-8.2-15.5l.6-.6c3.2-3.1,5.1-5-.3-11.7C13.8,3.1,12.1,2,10.5,1.9Z"/></g></symbol>
    <symbol id="workers"    xmlns="http://www.w3.org/2000/svg" viewBox="0 0 56.7 56.7"><g><path d="M28.3,0a6.6,6.6,0,0,0,0,13.2A6.6,6.6,0,0,0,35,6.6,6.7,6.7,0,0,0,28.3,0Zm0,11.3a4.7,4.7,0,1,1,4.8-4.7A4.7,4.7,0,0,1,28.3,11.3Z"/><path d="M31.2,14.2H25.5A8.5,8.5,0,0,0,17,22.7v16h3.8v18h1.9V35H20.8v1.9H18.9V22.7a6.6,6.6,0,0,1,6.6-6.6h5.7a6.6,6.6,0,0,1,6.6,6.6V36.9H35.9V35H34V56.7h1.9v-18h3.8v-16A8.5,8.5,0,0,0,31.2,14.2Z"/><rect x="27.4" y="38.7" width="1.9" height="17.95"/><path d="M47.2,9.4a5.7,5.7,0,1,0,5.7,5.7A5.7,5.7,0,0,0,47.2,9.4Zm0,9.5A3.8,3.8,0,1,1,51,15.1,3.8,3.8,0,0,1,47.2,18.9Z"/><path d="M50.1,21.7H41.6v1.9h8.5a4.7,4.7,0,0,1,4.7,4.7V40.6H52.9V38.7H51v18h1.9V42.5h3.8V28.3A6.7,6.7,0,0,0,50.1,21.7Z"/><polygon points="41.6 38.7 41.6 40.6 37.8 40.6 37.8 42.5 41.6 42.5 41.6 56.7 43.5 56.7 43.5 38.7 41.6 38.7"/><rect x="46.3" y="42.5" width="1.9" height="14.17"/><path d="M9.4,9.4a5.7,5.7,0,1,0,5.7,5.7A5.7,5.7,0,0,0,9.4,9.4Zm0,9.5a3.8,3.8,0,1,1,3.8-3.8A3.8,3.8,0,0,1,9.4,18.9Z"/><path d="M6.6,21.7A6.7,6.7,0,0,0,0,28.3V42.5H3.8V56.7H5.7v-18H3.8v1.9H1.9V28.3a4.7,4.7,0,0,1,4.7-4.7h8.5V21.7Z"/><polygon points="15.1 40.6 15.1 38.7 13.2 38.7 13.2 56.7 15.1 56.7 15.1 42.5 18.9 42.5 18.9 40.6 15.1 40.6"/><rect x="8.5" y="42.5" width="1.9" height="14.17"/></g></symbol>
    <symbol id="ruble"      xmlns="http://www.w3.org/2000/svg" viewBox="0 0 56.7 56.7"><g><g id="_1431421752"></g><g id="_1431421920"></g><g id="_1431421224"></g><g id="_1431422232"></g><g id="_1431422592"></g><g id="_1431422640"></g><g id="_1431421992"></g><g id="_1431422064"></g><g id="_1431422616"></g><g id="_1431422016"></g><g id="_1431422208"></g><g id="_1431422304"></g><g id="_1431422496"></g><g id="_1431423456"></g><g id="_1431423192"></g><g id="_1431428016_1_"><g><g><path id="_1431421704_1_" d="M48.4,8.3C43,3,35.9,0,28.3,0S13.7,3,8.3,8.3C2.9,13.7,0,20.8,0,28.3s2.9,14.7,8.3,20 c5.4,5.4,12.5,8.3,20,8.3s14.7-2.9,20-8.3c5.4-5.4,8.3-12.5,8.3-20S53.7,13.7,48.4,8.3z M28.3,53.4c-13.8,0-25-11.2-25-25 s11.2-25,25-25s25,11.2,25,25S42.1,53.4,28.3,53.4z"/></g></g><path id="_1564893440_1_" d="M29.2,9.3C29.2,9.3,29.2,9.3,29.2,9.3h-6.9c-0.9,0-1.6,0.7-1.6,1.6v17.6h-2.2c-0.9,0-1.6,0.7-1.6,1.6 c0,0.9,0.7,1.6,1.6,1.6h2.2v2.7l-2.2,0c-0.9,0-1.6,0.7-1.6,1.6c0,0.9,0.7,1.6,1.6,1.6h2.2v8.2c0,0.9,0.7,1.6,1.6,1.6 c0.9,0,1.6-0.7,1.6-1.6v-8.2h10.1c0.9,0,1.6-0.7,1.6-1.6c0-0.9-0.7-1.6-1.6-1.6H23.9v-2.7h5.3c5.9,0,10.6-5,10.6-11.1 C39.8,14.5,35.2,9.5,29.2,9.3z M29.2,28.5h-5.3v-16h5.3c4.2,0.1,7.5,3.7,7.5,8.1S33.3,28.5,29.2,28.5z"/></g><g id="_1564893272"></g><g id="_1564893128"></g><g id="_1564893320"></g><g id="_1564893800"></g><g id="_1564893824"></g><g id="_1564894184"></g><g id="_1564894256"></g><g id="_1564893896"></g><g id="_1564894160"></g><g id="_1564893968"></g><g id="_1564893992"></g><g id="_1564894088"></g><g id="_1564894424"></g><g id="_1564894784"></g><g id="_1564894760"></g></g></symbol>
    <symbol id="search"     xmlns="http://www.w3.org/2000/svg" viewBox="0 0 56.7 56.7"><g><path d="M56.7,52.2,40,35.5a22.6,22.6,0,0,0,4.4-13.3A22.2,22.2,0,1,0,22.2,44.4,22.6,22.6,0,0,0,35.5,40L52.2,56.7ZM2.1,22.2A20.1,20.1,0,1,1,22.2,42.3,20.1,20.1,0,0,1,2.1,22.2Zm35.5,16,.6-.6.4-.5L53.7,52.2l-1.5,1.5L37.1,38.6Z"/></g></symbol>
    <symbol id="builds"     xmlns="http://www.w3.org/2000/svg" viewBox="0 0 56.7 49.5"><g><path d="M40.3,27H32.6a3.8,3.8,0,0,0-3.8,3.8v5.9a3.8,3.8,0,0,0,3.8,3.8h7.7a3.8,3.8,0,0,0,3.8-3.8V30.8A3.8,3.8,0,0,0,40.3,27Zm1,9.7a1,1,0,0,1-1,1H32.6a1,1,0,0,1-1.1-1V30.8a1.1,1.1,0,0,1,1.1-1.1h7.7a1,1,0,0,1,1,1.1Z"/><path d="M56.7,16.2a1.9,1.9,0,0,0-.2-.7L48.1.7A1.5,1.5,0,0,0,46.9,0H9.8A1.5,1.5,0,0,0,8.6.7L.2,15.5a1.9,1.9,0,0,0-.2.7,8.3,8.3,0,0,0,4.9,7.5V48.1a1.4,1.4,0,0,0,1.4,1.4H50.4a1.4,1.4,0,0,0,1.4-1.4V23.8h0A8.1,8.1,0,0,0,56.7,16.2ZM10.6,2.8H46.1l6.6,11.6H4ZM40.3,17.2a5.3,5.3,0,0,1-5.2,4.4,5.5,5.5,0,0,1-5.3-4.4Zm-13.4,0a5.4,5.4,0,0,1-10.6,0Zm-24,0H13.4a5.3,5.3,0,0,1-5.3,4.4A5.3,5.3,0,0,1,2.9,17.2ZM23.4,46.7h-8v-15a1.9,1.9,0,0,1,1.9-2h4.1a2,2,0,0,1,2,2v15Zm25.6,0H26.1v-15A4.7,4.7,0,0,0,21.4,27H17.3a4.7,4.7,0,0,0-4.7,4.7v15h-5V24.3h.5a8.4,8.4,0,0,0,6.8-3.5,8.1,8.1,0,0,0,6.7,3.5,8.4,8.4,0,0,0,6.8-3.5,8.2,8.2,0,0,0,13.4,0,8.4,8.4,0,0,0,6.8,3.5H49V46.7Zm-.4-25.1a5.3,5.3,0,0,1-5.3-4.4H53.8A5.3,5.3,0,0,1,48.6,21.6Z"/></g></symbol>
    <symbol id="site"       xmlns="http://www.w3.org/2000/svg" viewBox="0 0 56.7 51.4"><g><path d="M55.9,0H.8A.9.9,0,0,0,0,.8V50.5a.9.9,0,0,0,.8.9H55.9a.9.9,0,0,0,.8-.9V.8A.9.9,0,0,0,55.9,0ZM55,7.1H11.1a.9.9,0,0,0-.9.8.9.9,0,0,0,.9.9H55V49.7H1.7V8.8H7.2a.9.9,0,0,0,.9-.9.9.9,0,0,0-.9-.8H1.7V1.7H55V7.1Z"/><path d="M31,39.1H25.7a3.5,3.5,0,1,0,0,6.9H31a3.5,3.5,0,1,0,0-6.9Zm0,5.3H25.7a1.8,1.8,0,0,1-1.8-1.9,1.8,1.8,0,0,1,1.8-1.8H31a1.8,1.8,0,0,1,1.8,1.8A1.8,1.8,0,0,1,31,44.4Z"/><path d="M48.8,3.6h-.2a.8.8,0,0,0-.8.8.9.9,0,0,0,.8.8h.2a.9.9,0,0,0,.8-.8A.8.8,0,0,0,48.8,3.6Z"/><path d="M52.3,3.6h-.1a.7.7,0,0,0-.8.8.8.8,0,0,0,.8.8h.1a.8.8,0,0,0,.8-.8A.7.7,0,0,0,52.3,3.6Z"/><path d="M45.1,3.6H45a.7.7,0,0,0-.8.8.8.8,0,0,0,.8.8h.1a.8.8,0,0,0,.8-.8A.7.7,0,0,0,45.1,3.6Z"/><path d="M52,41.2l-5.7-5.7,3.2-3.1a.9.9,0,0,0-.4-1.4l-5.7-1.6V18.6a.8.8,0,0,0-.9-.8H14.1a.8.8,0,0,0-.8.8V36.3a.9.9,0,0,0,.8.9H36.7L38.1,42a.9.9,0,0,0,1.4.4l3.1-3.2,5.7,5.7a.9.9,0,0,0,1.2,0L52,42.4A.9.9,0,0,0,52,41.2ZM15,35.5V19.4H41.7v9.5l-6.4-1.7a.8.8,0,0,0-1,1l2,7.3Zm33.9,7.6-5.7-5.6a.7.7,0,0,0-1.2,0l-2.7,2.7-3-11,11,3-2.7,2.7a.7.7,0,0,0,0,1.2l5.6,5.7Z"/><path d="M31.9,14.2H14.1a.9.9,0,0,0-.8.8.9.9,0,0,0,.8.9H31.9a.8.8,0,0,0,.8-.9A.8.8,0,0,0,31.9,14.2Z"/><path d="M43.4,14.2H34.6a.9.9,0,0,0-.9.8.9.9,0,0,0,.9.9h8.8a.9.9,0,0,0,.9-.9A.9.9,0,0,0,43.4,14.2Z"/></g></symbol>
    <symbol id="smartphone" xmlns="http://www.w3.org/2000/svg" viewBox="0 0 32.1 56.7"><g><path d="M28,0H4.2A4.2,4.2,0,0,0,0,4.2V52.5a4.2,4.2,0,0,0,4.2,4.2H28a4.1,4.1,0,0,0,4.1-4.2V4.2A4.1,4.1,0,0,0,28,0ZM1.9,7.6H30.2V43.5H1.9ZM4.2,1.9H28a2.2,2.2,0,0,1,2.2,2.3V5.7H1.9V4.2A2.3,2.3,0,0,1,4.2,1.9ZM28,54.8H4.2a2.3,2.3,0,0,1-2.3-2.3V45.4H30.2v7.1A2.2,2.2,0,0,1,28,54.8Z"/><path d="M16.1,46.3a3.8,3.8,0,1,0,3.7,3.8A3.8,3.8,0,0,0,16.1,46.3Zm0,5.7a1.9,1.9,0,0,1-1.9-1.9,1.8,1.8,0,0,1,1.9-1.9A1.9,1.9,0,0,1,18,50.1,2,2,0,0,1,16.1,52Z"/><path d="M12.3,4.7h3.8a.9.9,0,0,0,.9-.9,1,1,0,0,0-.9-1H12.3a1.1,1.1,0,0,0-1,1A1,1,0,0,0,12.3,4.7Z"/><path d="M18.9,4.7h.9a.9.9,0,0,0,1-.9,1,1,0,0,0-1-1h-.9a1,1,0,0,0-.9,1A.9.9,0,0,0,18.9,4.7Z"/><path d="M23.6,19.8a4.7,4.7,0,0,0,0-9.4H8.5a4.7,4.7,0,0,0-4.7,4.7V25l5.1-5.2Zm-17.9.6V15.1a2.8,2.8,0,0,1,2.8-2.8H23.6a2.9,2.9,0,1,1,0,5.7H8.1Z"/><path d="M23.6,26.5H8.5a4.7,4.7,0,0,0,0,9.4H23.2L28.3,41V31.2A4.7,4.7,0,0,0,23.6,26.5Zm2.9,10L24,34H8.5a2.9,2.9,0,0,1,0-5.7H23.6a2.9,2.9,0,0,1,2.9,2.9Z"/></g></symbol>
    <symbol id="support"    xmlns="http://www.w3.org/2000/svg" viewBox="0 0 56.7 56.7"><g><path d="M18.9,0A14.2,14.2,0,0,0,4.7,14.2V24.6a6.7,6.7,0,0,0,6.6,6.6h1V29.3h-1a4.7,4.7,0,0,1-4.7-4.7V14.2a12.3,12.3,0,0,1,24.6,0V24.6a4.7,4.7,0,0,1-4.7,4.7h-1v1.9h1a6.7,6.7,0,0,0,6.6-6.6V14.2A14.2,14.2,0,0,0,18.9,0Z"/><path d="M7.8,44.5l.7-1.1-1.6-1-.7,1.1a9.5,9.5,0,0,0,.4,10.7v2.5H8.5V53.9a.8.8,0,0,0-.2-.6A7.7,7.7,0,0,1,7.8,44.5Z"/><path d="M52,0H39.7A4.7,4.7,0,0,0,35,4.7v9.5a4.7,4.7,0,0,0,4.7,4.7h1.9v3.8a1,1,0,0,0,.6.9h.3a.9.9,0,0,0,.7-.3l4.4-4.4H52a4.7,4.7,0,0,0,4.7-4.7V4.7A4.7,4.7,0,0,0,52,0Zm2.8,14.2A2.9,2.9,0,0,1,52,17H47.2a.9.9,0,0,0-.6.3l-3.1,3.1V18a1,1,0,0,0-1-1H39.7a2.8,2.8,0,0,1-2.8-2.8V4.7a2.8,2.8,0,0,1,2.8-2.8H52a2.9,2.9,0,0,1,2.8,2.8Z"/><rect x="39.7" y="4.7" width="6.6" height="1.89"/><rect x="48.2" y="4.7" width="3.8" height="1.89"/><rect x="39.7" y="8.5" width="12.3" height="1.89"/><rect x="39.7" y="12.3" width="6.6" height="1.89"/><path d="M31.6,43.5l-.7-1.1-1.6,1,.7,1.1a7.7,7.7,0,0,1-.5,8.8.8.8,0,0,0-.2.6v2.8h1.9V54.2A9.5,9.5,0,0,0,31.6,43.5Z"/><path d="M55.7,32.1H47.2a6.7,6.7,0,0,0-6.6,6.4l-2.8,5.1V39.7a6.6,6.6,0,0,0-6.6-6.6H25.5a2,2,0,0,1-1.9-1.9V29a9.5,9.5,0,0,0,4.7-8.2V13.2a9.1,9.1,0,0,0-1.1-4.5A1,1,0,0,0,26,8.3L10,15.9a1,1,0,0,0-.6.8v4.1A9.8,9.8,0,0,0,14.2,29v2.2a2,2,0,0,1-1.9,1.9H6.6A6.6,6.6,0,0,0,0,39.7v17H1.9v-17A4.7,4.7,0,0,1,6.6,35h3l8.5,11.8a.9.9,0,0,0,.8.4h0a1.1,1.1,0,0,0,.8-.3L28.6,35h2.6a4.7,4.7,0,0,1,4.7,4.7v7.5a.9.9,0,0,0,1,1,1,1,0,0,0,.8-.5l4.4-8h5.4l-9.2,17h2.2l9.2-17h.4a6.7,6.7,0,0,0,6.6-6.6A.9.9,0,0,0,55.7,32.1ZM11.3,20.8V17.3l14.6-6.8a6.3,6.3,0,0,1,.6,2.7v7.6a7.6,7.6,0,0,1-15.2,0Zm7.6,23.9L16,40.6h6Zm4.5-6H14.6L11.9,35h.4a3.8,3.8,0,0,0,3.8-3.8V29.8a8.9,8.9,0,0,0,5.6,0v1.4A3.8,3.8,0,0,0,25.5,35h.8Zm26.7-.9H42.6A4.8,4.8,0,0,1,47.2,34h7.5A4.7,4.7,0,0,1,50.1,37.8Z"/></g></symbol>
    <symbol id="telegram"   xmlns="http://www.w3.org/2000/svg" viewBox="0 0 56.7 56.7"><g><g><g><path d="M48.4,8.3C43,3,35.9,0,28.4,0S13.7,3,8.3,8.3C3,13.7,0,20.8,0,28.4S3,43,8.3,48.4c5.4,5.4,12.5,8.3,20,8.3 s14.7-2.9,20-8.3s8.3-12.5,8.3-20S53.7,13.7,48.4,8.3z M28.4,54.9C13.7,54.9,1.8,43,1.8,28.4S13.7,1.8,28.4,1.8 s26.6,11.9,26.6,26.6S43,54.9,28.4,54.9z"/></g></g><g><g><path d="M44.4,10.9c-0.3-0.2-0.6-0.2-0.9-0.1L8.8,28.7c-0.3,0.2-0.5,0.5-0.5,0.8c0,0.3,0.2,0.6,0.5,0.8l9.1,4.5v9 c0,0.2,0.1,0.5,0.2,0.6c0.2,0.2,0.4,0.3,0.7,0.3c0.1,0,0.3,0,0.4-0.1l10.4-5.8l7.9,3.4c0.2,0.1,0.4,0.1,0.5,0.1 c0.4-0.1,0.6-0.4,0.7-0.7l2-10c0.1-0.6-0.3-1.1-0.9-1.1c-0.4,0-0.8,0.3-0.9,0.7l-1.8,8.9l-7.3-3.1c-0.3-0.1-0.5-0.1-0.8,0 l-9.4,5.2v-8c0-0.3-0.2-0.6-0.5-0.8l-8-4l31.4-16.2l-2.7,13.6c-0.1,0.6,0.3,1.1,0.9,1.1c0.4,0,0.8-0.3,0.9-0.7l3.1-15.4 C44.8,11.5,44.7,11.1,44.4,10.9z"/></g></g><g><g><path d="M38.6,18.2c-0.3-0.4-0.8-0.4-1.2-0.2l-15.5,9.5c-0.3,0.2-0.4,0.5-0.4,0.8v9.5c0,0.4,0.3,0.8,0.7,0.9c0.1,0,0.1,0,0.2,0 c0.3,0,0.6-0.2,0.8-0.5l3.5-7l11.8-11.8C38.9,19.1,38.9,18.6,38.6,18.2z M25.3,30.1c-0.1,0.1-0.1,0.1-0.2,0.2l-1.9,3.8v-5.3 l8.6-5.3L25.3,30.1z"/></g></g></g></symbol>
    <symbol id="fulltime"   xmlns="http://www.w3.org/2000/svg" viewBox="0 0 56.7 56.4"><g><path d="M41.5,46.8a1.3,1.3,0,0,0-.5,1.5,1.1,1.1,0,0,0,1.5.5,25.6,25.6,0,0,0,14.2-23A25.4,25.4,0,0,0,49.1,7.6,25.7,25.7,0,0,0,17.4,3.8a25.2,25.2,0,0,0-7.2,6.6c-.8,1.1,1,2.5,1.8,1.3a24.7,24.7,0,0,1,6.5-6A23.8,23.8,0,0,1,30.9,2.3,23.1,23.1,0,0,1,47.5,9.2a23.1,23.1,0,0,1,6.9,16.6,23.8,23.8,0,0,1-4.6,14.1,23.1,23.1,0,0,1-8.3,6.9Z"/><circle cx="38" cy="49.5" r="1.1"/><circle cx="8.8" cy="14.8" r="1.1"/><path d="M47.7,24.7H46.3V17.5a1.1,1.1,0,0,0-1.1-1.2,1.1,1.1,0,0,0-.9.5l-6.9,8.3a1.2,1.2,0,0,0,.1,1.6l.8.2h5.8v5a1.1,1.1,0,0,0,2.2,0v-5h1.4a1.1,1.1,0,0,0,0-2.2Zm-3.6,0H40.7l3.4-4.1Z"/><path d="M27.7,21.9A3.4,3.4,0,0,1,31,18.6a3.3,3.3,0,0,1,2.4,1,3.3,3.3,0,0,1,1,2.3,3.1,3.1,0,0,1-.9,2.1,14.8,14.8,0,0,1-2.9,1.7c-2.8,1.4-5,5.7-5,5.7a1.1,1.1,0,0,0,.5,1.5h9.4a1.1,1.1,0,1,0,0-2.2H28.6a8.9,8.9,0,0,1,3-3.1A12.3,12.3,0,0,0,35,25.6a4.9,4.9,0,0,0,1.6-3.7A5.5,5.5,0,0,0,35,18a5.4,5.4,0,0,0-7.9,0,5.5,5.5,0,0,0-1.6,3.9,1.1,1.1,0,1,0,2.2,0Z"/><path d="M35.8,50.5c-1.1-2.9-3.9-5.8-6.3-7.6s-3.4-2-4.3-1.2a5.2,5.2,0,0,1-3.6,1.1,4.9,4.9,0,0,1-3.3-1.7l-4.6-5.5A4.8,4.8,0,0,1,12.5,32a5.2,5.2,0,0,1,1.8-3.4c.9-.7.5-2.5-.5-4.4a26.6,26.6,0,0,0-2.9-4.5h-.1a14,14,0,0,0-3.3-2.9c-1.4-.9-2.7-1-3.5-.3H4C.6,19.2-.6,23.9.2,29.2A33.6,33.6,0,0,0,7.9,45c0,.1,0,.1.1.1A32.4,32.4,0,0,0,22.3,55.4c5,1.7,9.8,1.4,13.1-1.4h.2C36.3,53.2,36.4,51.9,35.8,50.5Zm-1.7,1.7c-2.7,2.3-6.8,2.5-11.1,1.1s-9.3-4.9-13.4-9.7h0A30.6,30.6,0,0,1,2.5,28.8c-.7-4.5.2-8.4,2.9-10.7h0l.9.5a14.8,14.8,0,0,1,2.8,2.5c.4.5,3,4,3.6,5.9a7.3,7.3,0,0,0-.8,10l4.6,5.5a7.7,7.7,0,0,0,4.9,2.6,6.5,6.5,0,0,0,5-1.5,7.6,7.6,0,0,1,1.7,1.1c2,1.5,4.7,4.1,5.6,6.6a4.1,4.1,0,0,0,.4.9Z"/></g></symbol>
    <symbol id="barber"     xmlns="http://www.w3.org/2000/svg" viewBox="0 0 56.7 56.7"><path d="M41.3,44.9a4.1,4.1,0,0,1-1.6-.3,4.6,4.6,0,0,0,.5-2.1,4.8,4.8,0,0,0-4.8-4.7h-.9l-4-8.3,7.2-18.5a1.2,1.2,0,0,0-2.2-1l-7.2,15-7.2-15a1.1,1.1,0,0,0-1.5-.6,1.2,1.2,0,0,0-.6,1.6l7.2,18.5-4,8.3h-.9a4.7,4.7,0,1,0,0,9.4A4.7,4.7,0,0,0,26,42.5a4.9,4.9,0,0,0-1.5-3.4l3.4-6h.9l3.4,6a4.9,4.9,0,0,0-1.5,3.4,4.7,4.7,0,0,0,4.7,4.7,4.6,4.6,0,0,0,2.6-.7,7.2,7.2,0,0,0,3.3.7,1.1,1.1,0,0,0,1.2-1.1A1.2,1.2,0,0,0,41.3,44.9Zm-20,0a2.4,2.4,0,0,1-2.4-2.4,2.3,2.3,0,0,1,2.4-2.3,2.3,2.3,0,0,1,2.3,2.3A2.3,2.3,0,0,1,21.3,44.9Zm14.1,0a2.3,2.3,0,0,1-2.3-2.4,2.3,2.3,0,0,1,2.3-2.3,2.3,2.3,0,0,1,2.4,2.3A2.4,2.4,0,0,1,35.4,44.9Z"/><path d="M28.3,0A28.4,28.4,0,1,0,56.7,28.3,28.3,28.3,0,0,0,28.3,0Zm0,54.3a26,26,0,1,1,26-26A25.9,25.9,0,0,1,28.3,54.3Z"/></symbol>
    <symbol id="chart"      xmlns="http://www.w3.org/2000/svg" viewBox="0 0 56.7 57.3"><g><path d="M56.3,48.7l-8.2-7.4a1.1,1.1,0,0,0-1.9.8v2.3h-10a1.1,1.1,0,0,0,0,2.2h4.6v2.7a1.1,1.1,0,0,0,1.1,1.1,1.1,1.1,0,0,0,1.2-1.1V46.6h4.2a1.2,1.2,0,0,0,1.2-1.1v-.9l5.3,4.9-5.3,4.3v-.4a1.2,1.2,0,0,0-1.2-1.2H33V49.6a1.1,1.1,0,0,0-1.1-1.1,1.1,1.1,0,0,0-1.2,1.1v2.6H12.8V49.6a1.1,1.1,0,0,0-2.2,0v2.6H5.1V46.7H7.7a1.2,1.2,0,0,0,1.2-1.2,1.2,1.2,0,0,0-1.2-1.1H5.1V29.5H7.7a1.1,1.1,0,1,0,0-2.2H5.1V10A1.1,1.1,0,0,0,4,8.8H3.4L7.9,3l4.8,5.8h-.9A1.1,1.1,0,0,0,10.7,10v8.7H8a1.2,1.2,0,0,0-1.2,1.2A1.1,1.1,0,0,0,8,21h2.7V35.8H8A1.2,1.2,0,0,0,6.8,37,1.1,1.1,0,0,0,8,38.1h2.7v7.4a1.1,1.1,0,0,0,1.1,1.1h8.8v2.7a1.1,1.1,0,0,0,1.2,1.1,1.1,1.1,0,0,0,1.1-1.1V46.6h4.5a1.1,1.1,0,1,0,0-2.2H13V11.1h2.1a1.2,1.2,0,0,0,1-.7A1.1,1.1,0,0,0,16,9.2L8.8.4A1.1,1.1,0,0,0,7.9,0,1.5,1.5,0,0,0,7,.4L.2,9.3a1.3,1.3,0,0,0-.1,1.2,1.3,1.3,0,0,0,1,.6H2.9V53.3a1,1,0,0,0,.4.9,1.1,1.1,0,0,0,.8.3H46.2v1.6a.9.9,0,0,0,.6,1l.5.2A.9.9,0,0,0,48,57l8.3-6.6a1.3,1.3,0,0,0,.4-.9A.9.9,0,0,0,56.3,48.7Z"/><path d="M16.3,38.2a3.2,3.2,0,0,0,2.3.9,3.2,3.2,0,0,0,2.2-1l8.9-8.9L32.6,33a3,3,0,0,0,2.3,1.3,3.2,3.2,0,0,0,2.5-1l8.2-8.6a3.2,3.2,0,0,0,6-1.5V17.5a1.7,1.7,0,0,0-.1-.7,2.9,2.9,0,0,0-.2-.9A3.1,3.1,0,0,0,48.4,14H42a3.2,3.2,0,0,0-3.2,3.2,3.2,3.2,0,0,0,2.3,3l-5.7,6-2.8-3.7a3.2,3.2,0,0,0-2.3-1.3,3.1,3.1,0,0,0-2.5.9l-2.6,2.7a1,1,0,0,0,0,1.6,1.2,1.2,0,0,0,1.6,0l2.6-2.7a.6.6,0,0,1,.7-.2.9.9,0,0,1,.7.3l3.6,4.8a1,1,0,0,0,.8.5,1,1,0,0,0,.9-.4L44.4,20a1.1,1.1,0,0,0,.2-1.2,1.2,1.2,0,0,0-1-.7H42a.9.9,0,0,1,0-1.8h6.4a.9.9,0,0,1,.8.5c0,.1.1.2.1.3v6.1a.9.9,0,0,1-1.8,0v-1a1.1,1.1,0,0,0-.7-1,1.1,1.1,0,0,0-1.2.2L35.8,31.7a1.1,1.1,0,0,1-.7.3.8.8,0,0,1-.7-.3l-3.7-4.9a1.2,1.2,0,0,0-.8-.4c-.3-.1-.6.1-.9.3l-9.8,9.9-.6.2-.7-.2a.8.8,0,0,1-.2-.7c0-.2,0-.5.2-.6l2.6-2.6a1.1,1.1,0,0,0-1.6-1.6l-2.6,2.6a3.1,3.1,0,0,0-.9,2.2A3.2,3.2,0,0,0,16.3,38.2Z"/><path d="M32.6,44.7h-.1a1.1,1.1,0,1,0-1.3,1.8h0l.7.2a1.4,1.4,0,0,0,.9-.5A1.2,1.2,0,0,0,32.6,44.7Z"/><path d="M22.2,29.6h0l.7.2a1.5,1.5,0,0,0,.9-.4,1.1,1.1,0,0,0-.2-1.6h-.1a1.1,1.1,0,0,0-1.5.3A1,1,0,0,0,22.2,29.6Z"/></g></symbol>
    <symbol id="time"       xmlns="http://www.w3.org/2000/svg" viewBox="0 0 56.7 60.3"><g><path d="M30,38.2a3.5,3.5,0,0,0,2.6-1.5l9.4-13a.9.9,0,0,0-.1-1.3,1,1,0,0,0-1.3-.1l-13,9.4a3.9,3.9,0,0,0-1.5,2.6,3.8,3.8,0,0,0,3.6,3.9Zm-1.9-3.7a1.9,1.9,0,0,1,.7-1.2l7.9-5.7L31,35.5a1.9,1.9,0,0,1-1.2.7,1.7,1.7,0,0,1-1.7-1.7Z"/><path d="M52.5,19.7h0a.1.1,0,0,1-.1-.1,32.7,32.7,0,0,0-3.5-4.8L51,12.6,52.4,14l4.3-4.3L52.4,5.4,48.2,9.7l1.4,1.4-2.2,2.2a24.1,24.1,0,0,0-4.8-3.6h-.1A29.8,29.8,0,0,0,32.2,6.2V5h1.5a2.5,2.5,0,0,0,2.5-2.5A2.5,2.5,0,0,0,33.7,0H24.6a2.5,2.5,0,0,0-2.5,2.5A2.5,2.5,0,0,0,24.6,5h1.5V6.2l-3.2.5a1,1,0,0,0-.8,1.2,1.1,1.1,0,0,0,1.2.8l2.8-.5h2V10a1.1,1.1,0,0,0,1,1.1,1,1,0,0,0,1-1.1V8.1a25.3,25.3,0,0,1,10.6,2.8l-1,1.7A1.1,1.1,0,0,0,40,14l.5.2a1,1,0,0,0,.9-.6l1-1.7a26.4,26.4,0,0,1,7.8,7.8l-1.7,1a1,1,0,0,0-.4,1.4,1.1,1.1,0,0,0,.9.5h.5l1.7-1a25.4,25.4,0,0,1,2.9,10.7h-2a.9.9,0,0,0-1,1,1,1,0,0,0,1,1h2a25.4,25.4,0,0,1-2.9,10.6l-1.7-1a1.1,1.1,0,0,0-1.4.4,1,1,0,0,0,.4,1.4l1.7,1a26.4,26.4,0,0,1-7.8,7.8l-1-1.7a1,1,0,0,0-1.4-.4,1.1,1.1,0,0,0-.3,1.4l1,1.7a25.4,25.4,0,0,1-10.6,2.9v-2a.9.9,0,0,0-1-1,1,1,0,0,0-1,1v2a26.5,26.5,0,0,1-4.8-.7,1.2,1.2,0,0,0-1.2.8,1.1,1.1,0,0,0,.8,1.2,24.8,24.8,0,0,0,6.1.7h.2a26.5,26.5,0,0,0,13.3-3.6h.1a26.3,26.3,0,0,0,9.8-9.8h.1a27,27,0,0,0,3.6-13.5A26.4,26.4,0,0,0,52.5,19.7ZM52.4,8.3l1.4,1.4-1.4,1.4L51,9.7ZM28.1,6.1V3H24.6a.5.5,0,0,1-.5-.5.5.5,0,0,1,.5-.5h9.1a.5.5,0,0,1,.5.5.5.5,0,0,1-.5.5H30.1V6.1h-2Z"/><path d="M20.1,14.1h-5a.9.9,0,0,0-1,1,1,1,0,0,0,1,1h5a1,1,0,0,0,1-1A.9.9,0,0,0,20.1,14.1Z"/><path d="M20.1,21.1H10a1.1,1.1,0,0,0-1,1,1,1,0,0,0,1,1H20.1a.9.9,0,0,0,1-1A1,1,0,0,0,20.1,21.1Z"/><path d="M20.1,28.1H5a1.1,1.1,0,0,0-1,1,1,1,0,0,0,1,1H20.1a.9.9,0,0,0,1-1A1,1,0,0,0,20.1,28.1Z"/><path d="M20.1,35.2H1a.9.9,0,0,0-1,1,1,1,0,0,0,1,1H20.1a1,1,0,0,0,1-1A.9.9,0,0,0,20.1,35.2Z"/><path d="M20.1,42.2H7a1.1,1.1,0,0,0-1,1,1,1,0,0,0,1,1H20.1a.9.9,0,0,0,1-1A1,1,0,0,0,20.1,42.2Z"/><path d="M20.1,49.2h-7a1,1,0,0,0-1,1,1,1,0,0,0,1,1.1h7a1,1,0,0,0,1-1.1A1,1,0,0,0,20.1,49.2Z"/></g></symbol>
    <symbol id="calendar"   xmlns="http://www.w3.org/2000/svg" viewBox="0 0 52 56.7"><g><path d="M46.3,1.9H43.5V.9a1,1,0,0,0-1-.9.9.9,0,0,0-.9.9v1H39.7V.9a.9.9,0,0,0-1-.9.9.9,0,0,0-.9.9v1H35.9V.9A.9.9,0,0,0,35,0a.9.9,0,0,0-1,.9v1H32.1V.9a.9.9,0,0,0-.9-.9,1,1,0,0,0-1,.9v1H17V.9a.9.9,0,0,0-.9-.9.9.9,0,0,0-1,.9v1H13.2V.9a.9.9,0,0,0-.9-.9,1,1,0,0,0-1,.9v1H9.4V.9A.9.9,0,0,0,7.6.9v1H5.7V.9a1,1,0,0,0-1-.9.9.9,0,0,0-.9.9v1H.9a.9.9,0,0,0-.9.9V47.2a.9.9,0,0,0,.9,1H28.4a.9.9,0,0,0,.9-1h0v-.8a13.3,13.3,0,0,1,.3-2.8,8.2,8.2,0,0,1,1-2.6c0-.1,0-.2.1-.2a1.6,1.6,0,0,1,.4-.7c0-.1.1-.2.1-.3l.5-.7h.1l.6-.7h0a12.9,12.9,0,0,1,5-3.3h.1l.8-.2h.4l.6-.2h3.2a10.9,10.9,0,0,1,3.5.7.9.9,0,0,0,1.2-.5V2.8A.9.9,0,0,0,46.3,1.9Zm-17,37.3h-.1l-.3.8a.5.5,0,0,0-.2.4l-.3.7h-.1V36.9H31A13.7,13.7,0,0,0,29.3,39.2ZM34,34.3l-.9.7H28.3V29.3H34Zm0-6.9H28.3V21.7H34Zm0-7.6H28.3V14.2H34Zm7.6,1.9v5.7H35.9V21.7Zm-5.7-1.9V14.2h5.7v5.6Zm5.7,12.3H37.9l-.9.3h-.1l-1,.4v-4h5.7v2.8Zm3.8.5-1.9-.3V13.2a1,1,0,0,0-1-.9H4.7a.9.9,0,0,0-.9.9V43.5a.9.9,0,0,0,.9.9H27.5c0,.6-.1,1.3-.1,1.9H1.9V10.4H45.4ZM20.8,35V29.3h5.7V35Zm5.7,1.9v5.6H20.8V36.9Zm-5.7-9.5V21.7h5.7v5.7Zm0-7.6V14.2h5.7v5.6ZM13.2,35V29.3h5.7V35Zm5.7,1.9v5.6H13.2V36.9Zm-5.7-9.5V21.7h5.7v5.7Zm0-7.6V14.2h5.7v5.6ZM5.7,35V29.3h5.6V35Zm5.6,1.9v5.6H5.7V36.9ZM5.7,27.4V21.7h5.6v5.7Zm0-7.6V14.2h5.6v5.6ZM45.4,8.5H1.9V3.8H3.8v.9a1,1,0,0,0,.9,1,1.1,1.1,0,0,0,1-1V3.8H7.6v.9a1,1,0,0,0,.9,1,1,1,0,0,0,.9-1V3.8h1.9v.9a1.1,1.1,0,0,0,1,1,1,1,0,0,0,.9-1V3.8h1.9v.9a1,1,0,0,0,1,1,1,1,0,0,0,.9-1V3.8H30.2v.9a1.1,1.1,0,0,0,1,1,1,1,0,0,0,.9-1V3.8H34v.9a1,1,0,0,0,1,1,1,1,0,0,0,.9-1V3.8h1.9v.9a1,1,0,0,0,.9,1,1,1,0,0,0,1-1V3.8h1.9v.9a1,1,0,0,0,.9,1,1.1,1.1,0,0,0,1-1V3.8h1.9Z"/><path d="M41.6,35.9A10.4,10.4,0,1,0,52,46.3,10.4,10.4,0,0,0,41.6,35.9Zm0,18.9a8.5,8.5,0,1,1,8.5-8.5A8.5,8.5,0,0,1,41.6,54.8Z"/><path d="M46.9,40.9a1,1,0,0,0-1.3,0l-4,4.1-2.2-2.2a.9.9,0,0,0-1.3,1.3L40.9,47a1,1,0,0,0,1.3,0L47,42.2A.9.9,0,0,0,46.9,40.9Z"/></g></symbol>
</svg>
