<svg width="510" height="285" viewBox="0 0 510 285" fill="none" xmlns="http://www.w3.org/2000/svg">
<rect width="510" height="285" fill="#E9EEF2"/>
<path fill-rule="evenodd" clip-rule="evenodd" d="M296.571 85H214.429C205.355 85 198 92.3553 198 101.429V183.571C198 184.872 198.151 186.137 198.437 187.35L200.793 185.095L244.881 137.333C246.416 135.67 248.963 135.442 250.77 136.806L266.163 148.43L284.521 127.624C286.202 125.719 289.141 125.627 290.937 127.423L309.05 145.536L313 149.486V101.429C313 92.3553 305.645 85 296.571 85ZM313 183.571V160.476L303.555 151.031L287.977 135.453L235.206 195.26C235.096 195.385 234.98 195.501 234.858 195.608L230.466 200H296.571C305.645 200 313 192.645 313 183.571ZM261.006 154.274L229.379 190.119L219.497 200H214.429C209.589 200 205.239 197.908 202.232 194.579L206.233 190.632C206.328 190.546 206.418 190.457 206.503 190.366L248.521 144.846L261.006 154.274ZM240.48 116.322C240.48 122.453 235.51 127.423 229.379 127.423C223.247 127.423 218.277 122.453 218.277 116.322C218.277 110.191 223.247 105.22 229.379 105.22C235.51 105.22 240.48 110.191 240.48 116.322Z" fill="#737373"/>
</svg>
